<?xml version="1.0" encoding="UTF-8" standalone="no"?><!DOCTYPE svg PUBLIC "-//W3C//DTD SVG 1.1//EN" "http://www.w3.org/Graphics/SVG/1.1/DTD/svg11.dtd"><svg width="100%" height="100%" viewBox="0 0 192 192" version="1.1" xmlns="http://www.w3.org/2000/svg" xmlns:xlink="http://www.w3.org/1999/xlink" xml:space="preserve" xmlns:serif="http://www.serif.com/" style="fill-rule:evenodd;clip-rule:evenodd;stroke-linejoin:round;stroke-miterlimit:2;"><path d="M165.275,28.517c0,-4.7 -3.817,-8.517 -8.518,-8.517l-121.514,0c-4.701,0 -8.518,3.817 -8.518,8.517c0,4.701 3.817,8.518 8.518,8.518l121.514,0c4.701,0 8.518,-3.817 8.518,-8.518Z" style="fill:url(#_Linear1);"/><path d="M57.363,108.433c0.838,0 1.644,0.318 2.256,0.889c6.492,6.053 39.19,36.545 49.503,46.163c0.809,0.754 1.27,1.809 1.272,2.915c0.003,1.106 -0.452,2.163 -1.257,2.921c-3.986,3.756 -10.394,9.793 -10.394,9.793c-1.541,1.452 -3.945,1.452 -5.486,0c-9.907,-9.333 -44.049,-41.5 -59.196,-55.77c-1.193,-1.124 -1.579,-2.863 -0.975,-4.387c0.605,-1.523 2.079,-2.524 3.718,-2.524l20.559,0Zm5.272,-19.591c-0.812,-0.757 -1.272,-1.816 -1.272,-2.926c0,-8.216 0,-42.748 0,-42.748l0.105,0c1.39,-4.484 16.331,-8.019 34.532,-8.019c18.201,0 33.142,3.535 34.532,8.019l0.105,0l0,61.265c0.006,0.47 0.081,0.933 0.243,1.375c0.563,1.539 2.028,2.562 3.654,2.624l0.103,0.001l20.559,0l0.153,0.003c0.651,0.037 1.277,0.205 1.844,0.532c1.731,0.998 2.465,3.195 1.683,5.033c-0.218,0.512 -0.541,0.956 -0.937,1.343l-33.271,31.345c0,0 -53.089,-49.506 -62.033,-57.847Z" style="fill:url(#_Linear2);"/><defs><linearGradient id="_Linear1" x1="0" y1="0" x2="1" y2="0" gradientUnits="userSpaceOnUse" gradientTransform="matrix(138.549,-7.6696e-15,9.89631e-15,17.0347,26.7254,28.5174)"><stop offset="0" style="stop-color:#2dcbb0;stop-opacity:1"/><stop offset="1" style="stop-color:#fc65b0;stop-opacity:1"/></linearGradient><linearGradient id="_Linear2" x1="0" y1="0" x2="1" y2="0" gradientUnits="userSpaceOnUse" gradientTransform="matrix(126.384,0,0,137.054,32.8041,103.676)"><stop offset="0" style="stop-color:#2dcbb0;stop-opacity:1"/><stop offset="1" style="stop-color:#fc65b0;stop-opacity:1"/></linearGradient></defs></svg>