<?xml version="1.0" encoding="UTF-8" standalone="no"?><!DOCTYPE svg PUBLIC "-//W3C//DTD SVG 1.1//EN" "http://www.w3.org/Graphics/SVG/1.1/DTD/svg11.dtd"><svg width="100%" height="100%" viewBox="0 0 192 192" version="1.1" xmlns="http://www.w3.org/2000/svg" xmlns:xlink="http://www.w3.org/1999/xlink" xml:space="preserve" xmlns:serif="http://www.serif.com/" style="fill-rule:evenodd;clip-rule:evenodd;stroke-linejoin:round;stroke-miterlimit:2;"><path d="M157,35c0,-4.139 -3.361,-7.5 -7.5,-7.5l-30,0c-4.139,0 -7.5,3.361 -7.5,7.5c0,4.139 3.361,7.5 7.5,7.5l30,0c4.139,0 7.5,-3.361 7.5,-7.5Z" style="fill:url(#_Linear1);"/><path d="M134,88.75c0,-4.139 -3.361,-7.5 -7.5,-7.5l-61,0c-4.139,0 -7.5,3.361 -7.5,7.5c0,4.139 3.361,7.5 7.5,7.5l61,0c4.139,0 7.5,-3.361 7.5,-7.5Z" style="fill:url(#_Linear2);"/><path d="M134,126.426c0,-4.139 -3.361,-7.5 -7.5,-7.5l-61,0c-4.139,0 -7.5,3.361 -7.5,7.5c0,4.14 3.361,7.5 7.5,7.5l61,0c4.139,0 7.5,-3.36 7.5,-7.5Z" style="fill:url(#_Linear3);"/><path d="M134,126.426c0,-4.139 -3.361,-7.5 -7.5,-7.5l-61,0c-4.139,0 -7.5,3.361 -7.5,7.5c0,4.14 3.361,7.5 7.5,7.5l61,0c4.139,0 7.5,-3.36 7.5,-7.5Z" style="fill:url(#_Linear4);"/><path d="M81.225,54.236c-1.041,-0.822 -1.607,-2.106 -1.511,-3.429c0.096,-1.322 0.841,-2.512 1.99,-3.175c2.234,-1.289 4.745,-2.739 6.525,-3.767c1.418,-0.819 3.193,-0.69 4.478,0.325c2.11,1.666 5.257,4.151 6.902,5.449c0.706,0.558 1.579,0.861 2.479,0.861c9.321,0 62.412,0 62.412,0c1.617,0 3.115,0.513 4.34,1.384l0.037,0.027c1.891,1.362 3.123,3.583 3.123,6.089l0,107c0,4.139 -3.361,7.5 -7.5,7.5c-0.95,0 -1.859,-0.177 -2.696,-0.5l-134.304,0l-0.048,0c-2.035,-0.013 -3.878,-0.838 -5.222,-2.166l-0.032,-0.032c-1.358,-1.357 -2.198,-3.232 -2.198,-5.302l0,-78.934c0,-1.429 0.762,-2.749 2,-3.464c1.791,-1.034 4.51,-2.604 7,-4.041c1.238,-0.715 2.762,-0.715 4,0c1.238,0.714 2,2.035 2,3.464c0,19.843 0,75.475 0,75.475c0.238,0.137 76.962,0.009 117.997,0c1.061,0.001 2.079,-0.42 2.83,-1.17c0.751,-0.75 1.173,-1.768 1.173,-2.829c0,-15.081 0,-68.418 0,-83.501c0,-1.061 -0.421,-2.078 -1.172,-2.828c-0.75,-0.751 -1.767,-1.172 -2.828,-1.172c-13.19,0 -54.471,0 -54.471,0l-0.035,0.002c-1.217,0.05 -2.433,-0.171 -3.541,-0.685c-0.531,-0.247 -1.026,-0.559 -1.489,-0.918c0,0 -7.246,-5.72 -12.239,-9.663Zm-61.225,-26.736c0.003,-0.79 0.123,-1.576 0.369,-2.327c0.74,-2.268 2.573,-4.087 4.844,-4.817c0.737,-0.237 1.513,-0.356 2.287,-0.356c10,0 20,0 30,0c0.332,0 0.657,0.032 0.987,0.065c0.066,0.006 0.204,-0.024 0.271,-0.03c0.129,-0.012 0.258,-0.021 0.387,-0.026c0.473,-0.02 0.948,0.004 1.416,0.072c1.303,0.19 2.513,0.728 3.552,1.532c0,0 5.158,4.072 9.165,7.236c1.041,0.822 1.607,2.106 1.511,3.429c-0.096,1.322 -0.841,2.512 -1.989,3.175c-2.234,1.289 -4.746,2.739 -6.525,3.767c-1.419,0.819 -3.193,0.69 -4.479,-0.325c-1.267,-1.001 -2.822,-2.228 -3.843,-3.034c-0.706,-0.558 -1.579,-0.861 -2.479,-0.861l-16.484,0c-2.204,0 -3.99,1.786 -3.99,3.99c0,4.656 0,12.2 0,15.977c0,1.429 -0.762,2.749 -2,3.464c-1.791,1.034 -4.51,2.604 -7,4.041c-1.238,0.715 -2.762,0.715 -4,0c-1.238,-0.714 -2,-2.035 -2,-3.464c0,-11.069 0,-31.508 0,-31.508Z" style="fill:url(#_Linear5);"/><defs><linearGradient id="_Linear1" x1="0" y1="0" x2="1" y2="0" gradientUnits="userSpaceOnUse" gradientTransform="matrix(45,-6.75349e-15,3.21426e-15,15,112,35)"><stop offset="0" style="stop-color:#2dcbb0;stop-opacity:1"/><stop offset="1" style="stop-color:#fc65b0;stop-opacity:1"/></linearGradient><linearGradient id="_Linear2" x1="0" y1="0" x2="1" y2="0" gradientUnits="userSpaceOnUse" gradientTransform="matrix(76,-6.75349e-15,5.42854e-15,15,58,88.75)"><stop offset="0" style="stop-color:#2dcbb0;stop-opacity:1"/><stop offset="1" style="stop-color:#fc65b0;stop-opacity:1"/></linearGradient><linearGradient id="_Linear3" x1="0" y1="0" x2="1" y2="0" gradientUnits="userSpaceOnUse" gradientTransform="matrix(76,-6.75349e-15,5.42854e-15,15,58,126.426)"><stop offset="0" style="stop-color:#2dcbb0;stop-opacity:1"/><stop offset="1" style="stop-color:#fc65b0;stop-opacity:1"/></linearGradient><linearGradient id="_Linear4" x1="0" y1="0" x2="1" y2="0" gradientUnits="userSpaceOnUse" gradientTransform="matrix(76,-6.75349e-15,5.42854e-15,15,58,126.426)"><stop offset="0" style="stop-color:#2dcbb0;stop-opacity:1"/><stop offset="1" style="stop-color:#fc65b0;stop-opacity:1"/></linearGradient><linearGradient id="_Linear5" x1="0" y1="0" x2="1" y2="0" gradientUnits="userSpaceOnUse" gradientTransform="matrix(152,0,0,152.5,20,96.25)"><stop offset="0" style="stop-color:#2dcbb0;stop-opacity:1"/><stop offset="1" style="stop-color:#fc65b0;stop-opacity:1"/></linearGradient></defs></svg>