<?xml version="1.0" encoding="UTF-8" standalone="no"?><!DOCTYPE svg PUBLIC "-//W3C//DTD SVG 1.1//EN" "http://www.w3.org/Graphics/SVG/1.1/DTD/svg11.dtd"><svg width="100%" height="100%" viewBox="0 0 192 192" version="1.1" xmlns="http://www.w3.org/2000/svg" xmlns:xlink="http://www.w3.org/1999/xlink" xml:space="preserve" xmlns:serif="http://www.serif.com/" style="fill-rule:evenodd;clip-rule:evenodd;stroke-linejoin:round;stroke-miterlimit:2;"><path d="M165.934,63.881c1.252,-0.723 2.798,-0.714 4.041,0.024c1.244,0.738 1.993,2.09 1.958,3.536c-0.662,12.867 -4.631,27.233 -11.933,41.599c-10.858,22.889 -38.257,45.778 -61.789,61.496c-1.34,0.89 -3.082,0.89 -4.423,0c-14.241,-9.512 -29.899,-21.652 -42.449,-34.828c-0.833,-0.89 -1.214,-2.112 -1.035,-3.318c0.179,-1.205 0.899,-2.264 1.954,-2.873c4.186,-2.422 10.402,-6.01 13.921,-8.042c1.573,-0.908 3.56,-0.642 4.839,0.647c6.938,6.899 15.142,13.248 22.757,18.397c1.346,0.901 3.104,0.901 4.45,-0.001c14.038,-9.491 30.076,-23.058 36.512,-36.626c4.205,-8.273 6.584,-16.547 7.138,-24.042c0.08,-1.338 0.827,-2.546 1.988,-3.216c4.331,-2.51 15.203,-8.787 22.071,-12.753Zm-124.183,54.377c-1.858,1.073 -4.232,0.489 -5.38,-1.324c-1.652,-2.625 -3.121,-5.26 -4.371,-7.894c-16,-31.481 -16,-62.961 0,-78.701c14.96,-14.717 43.907,-15.674 60.685,9.995c0.731,1.119 1.978,1.794 3.315,1.794c1.337,0 2.583,-0.675 3.314,-1.795c16.779,-25.668 45.726,-24.711 60.686,-9.994c3.175,3.124 5.721,6.867 7.635,11.107c0.825,1.86 0.115,4.042 -1.647,5.059c-5.612,3.265 -17.74,10.267 -23.652,13.68c-1.782,1.029 -4.054,0.538 -5.252,-1.135c-0.692,-1.011 -1.481,-1.94 -2.347,-2.792c-8.724,-8.582 -25.306,-9.433 -35.589,4.41c-0.744,0.99 -1.91,1.573 -3.148,1.573c-1.238,0 -2.404,-0.582 -3.148,-1.572c-10.282,-13.844 -26.865,-12.993 -35.589,-4.411c-9.684,9.527 -9.684,28.581 0,47.634c0.133,0.279 0.269,0.557 0.409,0.836c0.944,1.892 0.252,4.191 -1.579,5.248c-3.96,2.288 -10.448,6.033 -14.342,8.282Z" style="fill:url(#_Linear1);"/><defs><linearGradient id="_Linear1" x1="0" y1="0" x2="1" y2="0" gradientUnits="userSpaceOnUse" gradientTransform="matrix(152,0,0,151.204,20,95.6017)"><stop offset="0" style="stop-color:#2dcbb0;stop-opacity:1"/><stop offset="1" style="stop-color:#fc65b0;stop-opacity:1"/></linearGradient></defs></svg>