<?xml version="1.0" encoding="UTF-8" standalone="no"?><!DOCTYPE svg PUBLIC "-//W3C//DTD SVG 1.1//EN" "http://www.w3.org/Graphics/SVG/1.1/DTD/svg11.dtd"><svg width="100%" height="100%" viewBox="0 0 192 192" version="1.1" xmlns="http://www.w3.org/2000/svg" xmlns:xlink="http://www.w3.org/1999/xlink" xml:space="preserve" xmlns:serif="http://www.serif.com/" style="fill-rule:evenodd;clip-rule:evenodd;stroke-linejoin:round;stroke-miterlimit:2;"><g><path d="M147.775,108.273c0.292,-1.227 1.147,-2.243 2.305,-2.742c1.158,-0.499 2.483,-0.421 3.575,0.209c4.148,2.387 9.93,5.725 13.275,7.656c1.606,0.927 2.365,2.836 1.833,4.613c-0.485,1.59 -1.017,3.159 -1.598,4.704c-0.448,1.18 -0.313,2.501 0.364,3.565c2.84,4.566 4.471,9.955 4.471,15.722c0,16.557 -13.443,30 -30,30c-16.557,0 -30,-13.443 -30,-30c0,-16.557 13.443,-30 30,-30c0.513,0 1.022,0.013 1.529,0.038c1.894,0.091 3.592,-1.163 4.062,-3c0.061,-0.255 0.123,-0.51 0.184,-0.765Zm-109.434,-2.539c1.094,-0.631 2.422,-0.709 3.582,-0.209c1.16,0.499 2.016,1.518 2.309,2.746c0.054,0.257 0.116,0.512 0.18,0.766c0.47,1.836 2.166,3.089 4.059,2.999c0.507,-0.023 1.016,-0.036 1.529,-0.036c16.557,0 30,13.443 30,30c0,16.557 -13.443,30 -30,30c-16.557,0 -30,-13.443 -30,-30c0,-5.767 1.631,-11.156 4.456,-15.731c0.674,-1.06 0.808,-2.375 0.363,-3.549c-0.565,-1.552 -1.097,-3.121 -1.578,-4.712c-0.532,-1.775 0.226,-3.683 1.83,-4.609c3.344,-1.934 9.126,-5.272 13.27,-7.665Zm11.659,21.266c8.279,0 15,6.721 15,15c0,8.279 -6.721,15 -15,15c-8.279,0 -15,-6.721 -15,-15c0,-8.279 6.721,-15 15,-15Zm92,0c8.279,0 15,6.721 15,15c0,8.279 -6.721,15 -15,15c-8.279,0 -15,-6.721 -15,-15c0,-8.279 6.721,-15 15,-15Zm-119.402,-29.497c-0.536,0.31 -1.196,0.31 -1.732,0c-0.536,-0.309 -0.866,-0.881 -0.866,-1.5c0,-0.001 0,-0.002 0,-0.003c0,-41.946 34.054,-76 76,-76c41.946,0 76,34.054 76,76c0,0.001 0,0.002 0,0.003c0,0.619 -0.33,1.191 -0.866,1.5c-0.536,0.309 -1.196,0.309 -1.732,0c-4.961,-2.864 -15.799,-9.122 -19.788,-11.424c-0.957,-0.553 -1.642,-1.477 -1.894,-2.553c-5.612,-23.351 -26.653,-40.726 -51.72,-40.726c-25.067,0 -46.108,17.375 -51.726,40.724c-0.252,1.075 -0.936,1.997 -1.892,2.548c-3.985,2.309 -14.823,8.567 -19.784,11.431Z" style="fill:url(#_Linear1);"/></g><defs><linearGradient id="_Linear1" x1="0" y1="0" x2="1" y2="0" gradientUnits="userSpaceOnUse" gradientTransform="matrix(152,0,0,152,20,96)"><stop offset="0" style="stop-color:#2dcbb0;stop-opacity:1"/><stop offset="1" style="stop-color:#fc65b0;stop-opacity:1"/></linearGradient></defs></svg>