<?xml version="1.0" encoding="UTF-8" standalone="no"?><!DOCTYPE svg PUBLIC "-//W3C//DTD SVG 1.1//EN" "http://www.w3.org/Graphics/SVG/1.1/DTD/svg11.dtd"><svg width="100%" height="100%" viewBox="0 0 240 240" version="1.1" xmlns="http://www.w3.org/2000/svg" xmlns:xlink="http://www.w3.org/1999/xlink" xml:space="preserve" xmlns:serif="http://www.serif.com/" style="fill-rule:evenodd;clip-rule:evenodd;stroke-linejoin:round;stroke-miterlimit:2;"><g id="Screenshot"><path d="M220,70c0,-27.596 -22.404,-50 -50,-50l-100,0c-27.596,0 -50,22.404 -50,50l0,100c0,27.596 22.404,50 50,50l100,0c27.596,0 50,-22.404 50,-50l0,-100Zm-20,10c0,-22.077 -17.923,-40 -40,-40l-80,0c-22.077,0 -40,17.923 -40,40l0,80c0,22.077 17.923,40 40,40l80,0c22.077,0 40,-17.923 40,-40l0,-80Z" style="fill:url(#_Linear1);"/><path d="M120,60l30,0c16.557,0 30,13.443 30,30l0,60c0,16.557 -13.443,30 -30,30l-60,0c-16.557,0 -30,-13.443 -30,-30l0,-30c0,33.115 26.885,60 60,60c33.115,0 60,-26.885 60,-60c0,-33.115 -26.885,-60 -60,-60Zm0,21c21.525,0 39,17.475 39,39c0,21.525 -17.475,39 -39,39c-21.525,0 -39,-17.475 -39,-39c0,-21.525 17.475,-39 39,-39Zm0,-21c-33.115,0 -60,26.885 -60,60l0,-30c0,-16.557 13.443,-30 30,-30l30,0Z" style="fill:url(#_Linear2);"/></g><defs><linearGradient id="_Linear1" x1="0" y1="0" x2="1" y2="0" gradientUnits="userSpaceOnUse" gradientTransform="matrix(200,0,0,200,20,120)"><stop offset="0" style="stop-color:#2dcbb0;stop-opacity:1"/><stop offset="1" style="stop-color:#fc65b0;stop-opacity:1"/></linearGradient><linearGradient id="_Linear2" x1="0" y1="0" x2="1" y2="0" gradientUnits="userSpaceOnUse" gradientTransform="matrix(200,0,0,200,20,120)"><stop offset="0" style="stop-color:#2dcbb0;stop-opacity:1"/><stop offset="1" style="stop-color:#fc65b0;stop-opacity:1"/></linearGradient></defs></svg>