<?xml version="1.0" encoding="UTF-8" standalone="no"?><!DOCTYPE svg PUBLIC "-//W3C//DTD SVG 1.1//EN" "http://www.w3.org/Graphics/SVG/1.1/DTD/svg11.dtd"><svg width="100%" height="100%" viewBox="0 0 240 240" version="1.1" xmlns="http://www.w3.org/2000/svg" xmlns:xlink="http://www.w3.org/1999/xlink" xml:space="preserve" xmlns:serif="http://www.serif.com/" style="fill-rule:evenodd;clip-rule:evenodd;stroke-linejoin:round;stroke-miterlimit:2;"><path d="M216,20c1.061,0 2.078,0.421 2.828,1.172c0.751,0.75 1.172,1.767 1.172,2.828c0,25.615 0,166.385 0,192c0,1.061 -0.421,2.078 -1.172,2.828c-0.75,0.751 -1.767,1.172 -2.828,1.172c-10.41,0 -38.254,0 -48.661,0c-2.208,0 -3.999,-1.789 -4,-3.998c-0.01,-17.785 -0.052,-90.111 -0.068,-119.01c0,-0.52 -0.399,-0.953 -0.918,-0.996c-0.518,-0.043 -0.983,0.319 -1.068,0.832c-4.871,29.157 -17.244,103.219 -20.019,119.831c-0.322,1.928 -1.99,3.341 -3.945,3.341c-7.593,0 -25.902,0 -33.454,0c-1.936,0 -3.593,-1.386 -3.937,-3.29c-2.957,-16.4 -16.161,-89.637 -21.216,-117.675c-0.092,-0.509 -0.558,-0.864 -1.073,-0.818c-0.516,0.046 -0.911,0.477 -0.912,0.995c-0.016,27.78 -0.057,99.133 -0.068,116.79c-0.001,2.209 -1.791,3.998 -4,3.998c-10.407,0 -38.251,0 -48.661,0c-1.061,0 -2.078,-0.421 -2.828,-1.172c-0.751,-0.75 -1.172,-1.767 -1.172,-2.828c0,-25.615 0,-166.385 0,-192c0,-1.061 0.421,-2.078 1.172,-2.828c0.75,-0.751 1.767,-1.172 2.828,-1.172c14.403,0 63.457,0 76.607,0c1.902,0 3.541,1.339 3.92,3.203c2.282,11.316 4.628,24.421 7.039,39.316c0,0 5.692,31.463 8.124,44.902c0.089,0.496 0.523,0.854 1.027,0.849c0.503,-0.005 0.929,-0.373 1.008,-0.87c2.846,-17.838 11.201,-70.219 13.403,-84.03c0.31,-1.941 1.985,-3.37 3.95,-3.37c13.418,0 62.514,0 76.922,0Z" style="fill:#fc65b0;fill-rule:nonzero;"/></svg>