<?xml version="1.0" encoding="UTF-8" standalone="no"?><!DOCTYPE svg PUBLIC "-//W3C//DTD SVG 1.1//EN" "http://www.w3.org/Graphics/SVG/1.1/DTD/svg11.dtd"><svg width="100%" height="100%" viewBox="0 0 240 240" version="1.1" xmlns="http://www.w3.org/2000/svg" xmlns:xlink="http://www.w3.org/1999/xlink" xml:space="preserve" xmlns:serif="http://www.serif.com/" style="fill-rule:evenodd;clip-rule:evenodd;stroke-linejoin:round;stroke-miterlimit:2;"><g id="Volume"></g><path d="M37.256,116.452c-1.322,0.689 -2.152,2.057 -2.152,3.548c0,1.491 0.83,2.859 2.152,3.548c18.793,9.787 69.989,36.452 69.989,36.452c1.766,0 3.2,-1.434 3.2,-3.2l0,-73.6c0,-1.766 -1.434,-3.2 -3.2,-3.2c0,0 -51.196,26.665 -69.989,36.452Zm15,0c-1.322,0.689 -2.152,2.057 -2.152,3.548c0,1.491 0.83,2.859 2.152,3.548c13.246,6.899 41.189,21.452 41.189,21.452c1.104,0 2,-0.896 2,-2l0,-46c0,-1.104 -0.896,-2 -2,-2c0,0 -27.943,14.553 -41.189,21.452Z" style="fill:#d2ccd6;"/><path d="M77.945,55c35.874,0 65,29.126 65,65c0,35.874 -29.126,65 -65,65l0,-13c28.699,0 52,-23.3 52,-52c0,-28.7 -23.301,-52 -52,-52l0,-13Z" style="fill:#d2ccd6;"/><path d="M77.945,30c49.672,0 90,40.328 90,90c0,49.672 -40.328,90 -90,90l0,-18c39.738,0 72,-32.262 72,-72c0,-39.738 -32.262,-72 -72,-72l0,-18Z" style="fill:#d2ccd6;"/><path d="M148.374,20c32.346,21.507 53.681,58.282 53.681,100c0,41.718 -21.335,78.493 -53.681,100l-70.429,0l0,-4.087c1.362,0.058 2.733,0.087 4.11,0.087c52.984,0 96,-43.016 96,-96c0,-52.984 -43.016,-96 -96,-96c-1.377,0 -2.748,0.029 -4.11,0.087l0,-4.087l70.429,0Z" style="fill:#d2ccd6;"/></svg>