<?xml version="1.0" encoding="UTF-8" standalone="no"?><!DOCTYPE svg PUBLIC "-//W3C//DTD SVG 1.1//EN" "http://www.w3.org/Graphics/SVG/1.1/DTD/svg11.dtd"><svg width="100%" height="100%" viewBox="0 0 48 48" version="1.1" xmlns="http://www.w3.org/2000/svg" xmlns:xlink="http://www.w3.org/1999/xlink" xml:space="preserve" xmlns:serif="http://www.serif.com/" style="fill-rule:evenodd;clip-rule:evenodd;stroke-linejoin:round;stroke-miterlimit:2;"><g id="Floating"><path d="M36.5,24.625c0,-0.345 -0.28,-0.625 -0.625,-0.625l-14.582,0c-0.345,0 -0.625,0.28 -0.625,0.625l0,11.25c0,0.345 0.28,0.625 0.625,0.625l14.582,0c0.345,0 0.625,-0.28 0.625,-0.625l0,-11.25Z" style="fill:#d2ccd6;"/><path d="M28.917,12.371c0,-0.481 -0.39,-0.871 -0.871,-0.871l-15.675,0c-0.481,0 -0.871,0.39 -0.871,0.871l0,15.719c0,0.48 0.39,0.871 0.871,0.871l15.675,0c0.481,0 0.871,-0.391 0.871,-0.871l0,-15.719Z" style="fill:#fc65b0;"/></g></svg>