<?xml version="1.0" encoding="UTF-8" standalone="no"?><!DOCTYPE svg PUBLIC "-//W3C//DTD SVG 1.1//EN" "http://www.w3.org/Graphics/SVG/1.1/DTD/svg11.dtd"><svg width="100%" height="100%" viewBox="0 0 192 192" version="1.1" xmlns="http://www.w3.org/2000/svg" xmlns:xlink="http://www.w3.org/1999/xlink" xml:space="preserve" xmlns:serif="http://www.serif.com/" style="fill-rule:evenodd;clip-rule:evenodd;stroke-linejoin:round;stroke-miterlimit:2;"><path d="M103.554,65.928c1.236,-2.298 2.609,-4.51 4.108,-6.627c-3.679,-1.17 -7.597,-1.801 -11.662,-1.801c-21.249,0 -38.5,17.251 -38.5,38.5c0,21.249 17.251,38.5 38.5,38.5c4.065,0 7.983,-0.631 11.662,-1.801c-1.499,-2.117 -2.872,-4.329 -4.108,-6.627c4.168,-1.046 8.003,-2.936 11.312,-5.479c1.214,2.204 2.588,4.308 4.103,6.299c9.424,-7.021 15.531,-18.249 15.531,-30.892c0,-12.643 -6.107,-23.871 -15.531,-30.892c-1.515,1.991 -2.889,4.095 -4.103,6.299c-3.309,-2.543 -7.144,-4.433 -11.312,-5.479Z" style="fill:url(#_Linear1);"/><path d="M95.829,157c2.909,0.009 5.817,-0.189 8.697,-0.592c8.159,-1.143 16.055,-3.965 23.095,-8.244c10.478,-6.37 18.932,-15.896 23.987,-27.07c2.484,-5.491 4.141,-11.35 4.902,-17.329c0.784,-6.161 0.63,-12.444 -0.463,-18.557c-1.055,-5.9 -2.991,-11.635 -5.725,-16.968c-3.237,-6.317 -7.583,-12.054 -12.777,-16.89c-5.389,-5.017 -11.681,-9.052 -18.497,-11.839c-7.299,-2.984 -15.164,-4.511 -23.048,-4.511l-0.233,0.001c-0.401,-5.141 -1.315,-10.138 -2.691,-14.946c0.969,-0.036 1.944,-0.055 2.924,-0.055c41.946,0 76,34.054 76,76c0,41.946 -34.054,76 -76,76c-0.899,0 -1.795,-0.016 -2.686,-0.047c1.317,-4.811 2.172,-9.813 2.515,-14.953Zm-17.548,12.92c-7.212,-1.725 -14.027,-4.48 -20.281,-8.101c4.866,-2.818 9.392,-6.159 13.501,-9.949c2.993,1.316 6.092,2.392 9.262,3.208l0.152,0.039c-0.269,5.126 -1.172,10.085 -2.634,14.803Zm-33.34,-129.596l0.027,0.011l0.442,0.201l0.449,0.209l0.005,0.002l0.433,0.206l0.021,0.01l0.439,0.212l0.442,0.219l0.008,0.004l0.428,0.216l0.016,0.008l0.435,0.224l0.434,0.228l0.011,0.006l0.425,0.227l0.008,0.005l0.432,0.236l0.428,0.238l0.011,0.006l0.423,0.241c0.143,0.082 0.286,0.165 0.428,0.247l0.422,0.248l0.011,0.007l0.417,0.25c0.141,0.086 0.281,0.172 0.422,0.258l0.414,0.258l0.011,0.007l0.411,0.26c0.138,0.089 0.276,0.178 0.414,0.268l0.408,0.267l0.01,0.007l0.405,0.27c0.136,0.093 0.272,0.185 0.408,0.277l0.399,0.277l0.012,0.008l0.397,0.279c0.133,0.096 0.267,0.192 0.401,0.287l0.39,0.284l0.016,0.012l0.388,0.287c0.131,0.099 0.262,0.197 0.393,0.296l0.378,0.29l0.025,0.019c0.255,0.197 0.509,0.396 0.762,0.598l-0.224,0.18c-5.99,4.854 -11.066,10.783 -14.872,17.493c-2.944,5.19 -5.118,10.811 -6.425,16.633c-1.216,5.415 -1.681,10.995 -1.4,16.537c0.309,6.081 1.53,12.11 3.625,17.828c3.839,10.477 10.594,19.787 19.298,26.74c-4.103,3.273 -8.637,6.029 -13.5,8.167c-15.062,-13.891 -24.502,-33.788 -24.502,-55.872c0,-22.084 9.44,-41.981 24.502,-55.872l0.439,0.196Zm15.752,-8.508c-0.885,-0.563 -1.782,-1.108 -2.693,-1.635c6.181,-3.578 12.91,-6.311 20.029,-8.04c1.525,4.696 2.497,9.64 2.835,14.755c-0.277,0.071 -0.554,0.143 -0.83,0.218c-2.887,0.782 -5.707,1.785 -8.45,2.976l-0.086,0.038c-0.383,-0.354 -0.77,-0.703 -1.162,-1.05l-0.267,-0.236l-0.11,-0.096l-0.02,-0.017l-0.031,-0.027l-0.183,-0.16l-0.151,-0.13l-0.031,-0.027l-0.029,-0.024l-0.135,-0.116l-0.203,-0.173l-0.031,-0.027l-0.017,-0.014c-0.523,-0.444 -1.053,-0.882 -1.587,-1.311l-0.013,-0.01l-0.03,-0.024l-0.23,-0.184l-0.121,-0.096l-0.029,-0.023l-0.038,-0.03l-0.17,-0.135l-0.166,-0.129l-0.038,-0.03l-0.03,-0.023l-0.126,-0.099l-0.226,-0.174l-0.033,-0.025l-0.015,-0.012c-0.543,-0.418 -1.093,-0.829 -1.649,-1.233l-0.016,-0.012l-0.032,-0.023l-0.224,-0.162l-0.141,-0.101l-0.029,-0.021l-0.034,-0.025l-0.168,-0.12l-0.192,-0.136l-0.034,-0.024l-0.023,-0.016l-0.124,-0.087l-0.289,-0.202c-0.569,-0.396 -1.144,-0.784 -1.725,-1.165l-0.011,-0.008l-0.02,-0.013l-0.23,-0.15l-0.171,-0.11l-0.02,-0.013l-0.02,-0.013l-0.173,-0.112l-0.258,-0.164Z" style="fill:url(#_Linear2);"/><defs><linearGradient id="_Linear1" x1="0" y1="0" x2="1" y2="0" gradientUnits="userSpaceOnUse" gradientTransform="matrix(-77,0,0,77,134.5,96)"><stop offset="0" style="stop-color:#fc65b0;stop-opacity:1"/><stop offset="1" style="stop-color:#e8ec77;stop-opacity:1"/></linearGradient><linearGradient id="_Linear2" x1="0" y1="0" x2="1" y2="0" gradientUnits="userSpaceOnUse" gradientTransform="matrix(152,0,0,152,20,96)"><stop offset="0" style="stop-color:#e8ec77;stop-opacity:1"/><stop offset="1" style="stop-color:#fc65b0;stop-opacity:1"/></linearGradient></defs></svg>