<?xml version="1.0" encoding="UTF-8" standalone="no"?><!DOCTYPE svg PUBLIC "-//W3C//DTD SVG 1.1//EN" "http://www.w3.org/Graphics/SVG/1.1/DTD/svg11.dtd"><svg width="100%" height="100%" viewBox="0 0 192 192" version="1.1" xmlns="http://www.w3.org/2000/svg" xmlns:xlink="http://www.w3.org/1999/xlink" xml:space="preserve" xmlns:serif="http://www.serif.com/" style="fill-rule:evenodd;clip-rule:evenodd;stroke-linejoin:round;stroke-miterlimit:2;"><g><path d="M27.452,172c-2.003,-0.013 -3.82,-0.812 -5.158,-2.103l-0.032,-0.031c-1.395,-1.363 -2.262,-3.264 -2.262,-5.366l0,-68.5c0.003,-0.879 0.153,-1.752 0.455,-2.578c0.557,-1.518 1.611,-2.834 2.966,-3.715c0.612,-0.398 1.282,-0.706 1.982,-0.91c0.789,-0.229 1.614,-0.326 2.435,-0.29c0.855,0.038 1.703,0.224 2.496,0.548c0.866,0.354 1.663,0.872 2.339,1.517c0.709,0.676 1.284,1.489 1.683,2.384c0.426,0.958 0.641,1.997 0.644,3.044l0,57c0,1.061 0.421,2.078 1.172,2.828c0.75,0.751 1.767,1.172 2.828,1.172c21.82,0 125.5,0 125.5,0c4.139,0 7.5,3.361 7.5,7.5c0,4.139 -3.361,7.5 -7.5,7.5l-137,0l-0.048,0Z" style="fill:url(#_Linear1);"/><path d="M164.548,20c2.003,0.013 3.82,0.812 5.158,2.103l0.032,0.031c1.395,1.363 2.262,3.264 2.262,5.366l0,68.5c-0.003,0.879 -0.153,1.752 -0.455,2.578c-0.557,1.518 -1.611,2.834 -2.966,3.715c-0.612,0.398 -1.282,0.706 -1.982,0.91c-0.789,0.229 -1.614,0.326 -2.435,0.29c-0.855,-0.038 -1.703,-0.224 -2.496,-0.548c-0.866,-0.354 -1.663,-0.872 -2.339,-1.517c-0.709,-0.676 -1.284,-1.489 -1.683,-2.384c-0.426,-0.958 -0.641,-1.997 -0.644,-3.044l0,-57c0,-1.061 -0.421,-2.078 -1.172,-2.828c-0.75,-0.751 -1.767,-1.172 -2.828,-1.172c-21.82,0 -125.5,0 -125.5,0c-4.139,0 -7.5,-3.361 -7.5,-7.5c0,-4.139 3.361,-7.5 7.5,-7.5l137,0l0.048,0Z" style="fill:url(#_Linear2);"/></g><path d="M134,57.5c0,-4.139 -3.361,-7.5 -7.5,-7.5l-61,0c-4.139,0 -7.5,3.361 -7.5,7.5c0,4.139 3.361,7.5 7.5,7.5l61,0c4.139,0 7.5,-3.361 7.5,-7.5Z" style="fill:url(#_Linear3);"/><path d="M134,96c0,-4.139 -3.361,-7.5 -7.5,-7.5l-61,0c-4.139,0 -7.5,3.361 -7.5,7.5c0,4.139 3.361,7.5 7.5,7.5l61,0c4.139,0 7.5,-3.361 7.5,-7.5Z" style="fill:url(#_Linear4);"/><path d="M134,134.5c0,-4.139 -3.361,-7.5 -7.5,-7.5l-61,0c-4.139,0 -7.5,3.361 -7.5,7.5c0,4.139 3.361,7.5 7.5,7.5l61,0c4.139,0 7.5,-3.361 7.5,-7.5Z" style="fill:url(#_Linear5);"/><defs><linearGradient id="_Linear1" x1="0" y1="0" x2="1" y2="0" gradientUnits="userSpaceOnUse" gradientTransform="matrix(152,0,0,83.5,20,130.25)"><stop offset="0" style="stop-color:#e8ec77;stop-opacity:1"/><stop offset="1" style="stop-color:#fc65b0;stop-opacity:1"/></linearGradient><linearGradient id="_Linear2" x1="0" y1="0" x2="1" y2="0" gradientUnits="userSpaceOnUse" gradientTransform="matrix(-152,-1.86146e-14,1.02258e-14,-83.5,172,61.75)"><stop offset="0" style="stop-color:#fc65b0;stop-opacity:1"/><stop offset="1" style="stop-color:#e8ec77;stop-opacity:1"/></linearGradient><linearGradient id="_Linear3" x1="0" y1="0" x2="1" y2="0" gradientUnits="userSpaceOnUse" gradientTransform="matrix(76,-6.75349e-15,5.42854e-15,15,58,57.5)"><stop offset="0" style="stop-color:#e8ec77;stop-opacity:1"/><stop offset="1" style="stop-color:#fc65b0;stop-opacity:1"/></linearGradient><linearGradient id="_Linear4" x1="0" y1="0" x2="1" y2="0" gradientUnits="userSpaceOnUse" gradientTransform="matrix(76,-6.75349e-15,5.42854e-15,15,58,96)"><stop offset="0" style="stop-color:#e8ec77;stop-opacity:1"/><stop offset="1" style="stop-color:#fc65b0;stop-opacity:1"/></linearGradient><linearGradient id="_Linear5" x1="0" y1="0" x2="1" y2="0" gradientUnits="userSpaceOnUse" gradientTransform="matrix(76,-6.75349e-15,5.42854e-15,15,58,134.5)"><stop offset="0" style="stop-color:#e8ec77;stop-opacity:1"/><stop offset="1" style="stop-color:#fc65b0;stop-opacity:1"/></linearGradient></defs></svg>