<?xml version="1.0" encoding="UTF-8" standalone="no"?><!DOCTYPE svg PUBLIC "-//W3C//DTD SVG 1.1//EN" "http://www.w3.org/Graphics/SVG/1.1/DTD/svg11.dtd"><svg width="100%" height="100%" viewBox="0 0 192 192" version="1.1" xmlns="http://www.w3.org/2000/svg" xmlns:xlink="http://www.w3.org/1999/xlink" xml:space="preserve" xmlns:serif="http://www.serif.com/" style="fill-rule:evenodd;clip-rule:evenodd;stroke-linejoin:round;stroke-miterlimit:2;"><g><path d="M172,164.5c0,-4.139 -3.361,-7.5 -7.5,-7.5l-87,0c-4.139,0 -7.5,3.361 -7.5,7.5c0,4.139 3.361,7.5 7.5,7.5l87,0c4.139,0 7.5,-3.361 7.5,-7.5Z" style="fill:url(#_Linear1);"/><path d="M32.072,147.517c0,0.461 0.254,0.885 0.662,1.102c0.407,0.217 0.901,0.191 1.283,-0.067c10.177,-6.855 57.409,-38.674 72.885,-49.099c1.104,-0.744 1.765,-1.987 1.765,-3.318c0,-1.33 -0.661,-2.574 -1.765,-3.317c-18.585,-12.52 -83.416,-56.194 -83.416,-56.194c-3.019,-2.034 -4.328,-7.227 -2.92,-11.588c1.408,-4.362 5.002,-6.252 8.022,-4.218l99.926,67.316c2.215,1.492 3.509,4.684 3.486,8.001c0.023,3.317 -1.271,6.509 -3.486,8.001l-99.832,67.253c-0.575,0.406 -1.201,0.684 -1.861,0.808l-0.021,0.004c-0.254,0.047 -0.509,0.07 -0.763,0.07l-0.001,0c-1.343,0 -2.584,-0.635 -3.587,-1.709c-0.568,-0.605 -1.068,-1.36 -1.468,-2.248c-0.397,-0.875 -0.744,-2.705 -0.886,-3.515c-0.041,-0.23 -0.061,-0.463 -0.062,-0.696c-0.009,-2.327 -0.032,-17.655 -0.033,-17.987c0,-0.002 0,-0.004 0,-0.006c0,-0.207 0.189,-3.975 0.809,-5.527l6.036,-15.104c1.665,-4.168 5.36,-5.598 8.245,-3.191c2.885,2.406 3.875,7.743 2.209,11.911c0,0 -4.455,11.149 -5.139,12.861c-0.058,0.145 -0.088,0.3 -0.088,0.456c0,0 0,0.001 0,0.001Z" style="fill:url(#_Linear2);"/></g><defs><linearGradient id="_Linear1" x1="0" y1="0" x2="1" y2="0" gradientUnits="userSpaceOnUse" gradientTransform="matrix(102,-6.75349e-15,7.28567e-15,15,70,164.5)"><stop offset="0" style="stop-color:#e8ec77;stop-opacity:1"/><stop offset="1" style="stop-color:#fc65b0;stop-opacity:1"/></linearGradient><linearGradient id="_Linear2" x1="0" y1="0" x2="1" y2="0" gradientUnits="userSpaceOnUse" gradientTransform="matrix(112,0,0,152.271,20,96.1353)"><stop offset="0" style="stop-color:#e8ec77;stop-opacity:1"/><stop offset="1" style="stop-color:#fc65b0;stop-opacity:1"/></linearGradient></defs></svg>