<?xml version="1.0" encoding="UTF-8" standalone="no"?><!DOCTYPE svg PUBLIC "-//W3C//DTD SVG 1.1//EN" "http://www.w3.org/Graphics/SVG/1.1/DTD/svg11.dtd"><svg width="100%" height="100%" viewBox="0 0 240 240" version="1.1" xmlns="http://www.w3.org/2000/svg" xmlns:xlink="http://www.w3.org/1999/xlink" xml:space="preserve" xmlns:serif="http://www.serif.com/" style="fill-rule:evenodd;clip-rule:evenodd;stroke-linejoin:round;stroke-miterlimit:2;"><g id="Wifi"><g><circle cx="120" cy="120" r="55" style="fill:#e8ec77;"/><path d="M120,20c55.192,0 100,44.808 100,100c0,55.192 -44.808,100 -100,100c-55.192,0 -100,-44.808 -100,-100c0,-55.192 44.808,-100 100,-100Zm0,25c41.394,0 75,33.606 75,75c0,41.394 -33.606,75 -75,75c-41.394,0 -75,-33.606 -75,-75c0,-41.394 33.606,-75 75,-75Z" style="fill:#e8ec77;"/></g><g><path d="M185,118.281c0,-13.798 -11.202,-25 -25,-25l-80,0c-13.798,0 -25,11.202 -25,25l0,50c0,13.798 11.202,25 25,25l80,0c13.798,0 25,-11.202 25,-25l0,-50Z" style="fill:#d2ccd6;"/><path d="M120,46.719c27.596,0 50,22.404 50,50c0,27.596 -22.404,50 -50,50c-27.596,0 -50,-22.404 -50,-50c0,-27.596 22.404,-50 50,-50Zm0,25c13.798,0 25,11.202 25,25c0,13.798 -11.202,25 -25,25c-13.798,0 -25,-11.202 -25,-25c0,-13.798 11.202,-25 25,-25Z" style="fill:#d2ccd6;"/></g></g></svg>