<?xml version="1.0" encoding="UTF-8" standalone="no"?><!DOCTYPE svg PUBLIC "-//W3C//DTD SVG 1.1//EN" "http://www.w3.org/Graphics/SVG/1.1/DTD/svg11.dtd"><svg width="100%" height="100%" viewBox="0 0 240 240" version="1.1" xmlns="http://www.w3.org/2000/svg" xmlns:xlink="http://www.w3.org/1999/xlink" xml:space="preserve" xmlns:serif="http://www.serif.com/" style="fill-rule:evenodd;clip-rule:evenodd;stroke-linejoin:round;stroke-miterlimit:2;"><g id="Wifi"><circle cx="120" cy="120" r="55" style="fill:#e8ec77;"/><path d="M120,20c55.192,0 100,44.808 100,100c0,55.192 -44.808,100 -100,100c-55.192,0 -100,-44.808 -100,-100c0,-55.192 44.808,-100 100,-100Zm0,25c41.394,0 75,33.606 75,75c0,41.394 -33.606,75 -75,75c-41.394,0 -75,-33.606 -75,-75c0,-41.394 33.606,-75 75,-75Z" style="fill:#e8ec77;"/><path d="M139.949,42.177c0,-6.721 -14.523,-12.177 -20.042,-12.177c-5.519,0 -19.856,6.362 -19.856,13.082l9.856,120.862c0,6.72 4.481,-0.877 10,-0.877c5.519,0 10,7.597 10,0.877l10.042,-121.767Z" style="fill:#d2ccd6;"/><ellipse cx="119.907" cy="191.35" rx="15" ry="18.65" style="fill:#d2ccd6;"/></g></svg>