<?xml version="1.0" encoding="UTF-8" standalone="no"?><!DOCTYPE svg PUBLIC "-//W3C//DTD SVG 1.1//EN" "http://www.w3.org/Graphics/SVG/1.1/DTD/svg11.dtd"><svg width="100%" height="100%" viewBox="0 0 192 192" version="1.1" xmlns="http://www.w3.org/2000/svg" xmlns:xlink="http://www.w3.org/1999/xlink" xml:space="preserve" xmlns:serif="http://www.serif.com/" style="fill-rule:evenodd;clip-rule:evenodd;stroke-linejoin:round;stroke-miterlimit:2;"><path d="M20,172l0,-144.5l0,-0.048c0.013,-2.035 0.838,-3.878 2.166,-5.222l0.032,-0.032c0.97,-0.964 2.189,-1.659 3.519,-1.984c0.583,-0.143 1.182,-0.212 1.783,-0.214l137,0c2.054,0 3.915,0.827 5.27,2.166l0.032,0.032c1.358,1.357 2.198,3.232 2.198,5.302l0,144.5l-152,0Zm137,-133.015c0,-1.057 -0.42,-2.07 -1.167,-2.818c-0.748,-0.747 -1.761,-1.167 -2.818,-1.167c-18.458,0 -95.526,0 -114.015,0c-2.209,0 -4,1.791 -4,4c0,10.866 0,41.313 0,59.269c0,1.779 1.174,3.343 2.881,3.841c1.708,0.497 3.538,-0.192 4.493,-1.692c5.377,-8.446 11.726,-18.418 11.726,-18.418c0,0 25.777,17.668 36.992,25.355c1.121,0.768 2.555,0.915 3.807,0.39c1.253,-0.525 2.154,-1.65 2.393,-2.987c2.178,-12.213 6.869,-38.508 6.869,-38.508c0,0 32.039,27.741 46.221,40.02c1.183,1.025 2.856,1.265 4.28,0.614c1.424,-0.651 2.338,-2.073 2.338,-3.638c0,-16.66 0,-52.325 0,-64.261Zm-76,6.865c8.279,0 15,6.721 15,15c0,8.279 -6.721,15 -15,15c-8.279,0 -15,-6.721 -15,-15c0,-8.279 6.721,-15 15,-15Z" style="fill:url(#_Linear1);"/><defs><linearGradient id="_Linear1" x1="0" y1="0" x2="1" y2="0" gradientUnits="userSpaceOnUse" gradientTransform="matrix(152,0,0,152,20,96)"><stop offset="0" style="stop-color:#2dcbb0;stop-opacity:1"/><stop offset="1" style="stop-color:#fc65b0;stop-opacity:1"/></linearGradient></defs></svg>