<?xml version="1.0" encoding="UTF-8" standalone="no"?><!DOCTYPE svg PUBLIC "-//W3C//DTD SVG 1.1//EN" "http://www.w3.org/Graphics/SVG/1.1/DTD/svg11.dtd"><svg width="100%" height="100%" viewBox="0 0 192 192" version="1.1" xmlns="http://www.w3.org/2000/svg" xmlns:xlink="http://www.w3.org/1999/xlink" xml:space="preserve" xmlns:serif="http://www.serif.com/" style="fill-rule:evenodd;clip-rule:evenodd;stroke-linejoin:round;stroke-miterlimit:2;"><path d="M58.681,127.863c1.342,-0.807 3.031,-0.757 4.323,0.128c1.292,0.885 1.949,2.442 1.68,3.985c-0.024,0.138 -0.037,0.215 -0.037,0.215c-0.547,3.146 0.683,6.34 3.165,8.219c2.482,1.879 5.777,2.111 8.479,0.597c0,0 12.773,-7.157 17.754,-9.948c1.214,-0.68 2.696,-0.68 3.91,0c4.981,2.791 17.754,9.948 17.754,9.948c2.702,1.514 5.997,1.282 8.479,-0.597c2.482,-1.879 3.712,-5.073 3.165,-8.219c0,0 -0.013,-0.077 -0.037,-0.215c-0.269,-1.543 0.388,-3.1 1.68,-3.985c1.292,-0.885 2.981,-0.935 4.323,-0.128c3.413,2.054 7.14,4.296 9.186,5.528c0.995,0.598 1.68,1.599 1.879,2.742c0.898,5.165 3.417,19.66 3.417,19.66c0.903,5.198 -1.13,10.475 -5.23,13.58c-4.1,3.105 -9.544,3.488 -14.008,0.987c0,0 -23.578,-13.211 -30.608,-17.15c-1.214,-0.681 -2.696,-0.681 -3.91,0c-7.03,3.939 -30.608,17.15 -30.608,17.15c-4.464,2.501 -9.908,2.118 -14.008,-0.987c-4.1,-3.105 -6.133,-8.382 -5.23,-13.58c0,0 2.519,-14.495 3.417,-19.66c0.199,-1.143 0.884,-2.144 1.879,-2.742c2.046,-1.232 5.773,-3.474 9.186,-5.528Zm-7.774,-14.14c-1.572,0.946 -3.587,0.7 -4.886,-0.595c-5.966,-5.949 -21.946,-21.883 -21.946,-21.883c-3.662,-3.652 -4.995,-9.166 -3.429,-14.19c1.567,-5.023 5.755,-8.668 10.777,-9.379l36.634,-5.186l16.053,-34.707c2.201,-4.758 6.822,-7.783 11.89,-7.783c5.068,0 9.689,3.025 11.89,7.783l16.053,34.707l36.634,5.186c5.022,0.711 9.21,4.356 10.777,9.379c1.566,5.024 0.233,10.538 -3.429,14.19c0,0 -15.98,15.934 -21.946,21.883c-1.299,1.295 -3.314,1.541 -4.886,0.595c-2.557,-1.538 -6.455,-3.884 -9.467,-5.696c-1.056,-0.635 -1.76,-1.722 -1.908,-2.944c-0.149,-1.223 0.274,-2.446 1.146,-3.316c3.627,-3.617 8.67,-8.645 8.67,-8.645c2.216,-2.21 3.023,-5.548 2.075,-8.588c-0.948,-3.041 -3.483,-5.247 -6.523,-5.678c0,0 -14.446,-2.044 -20.017,-2.833c-1.345,-0.19 -2.501,-1.049 -3.07,-2.281c-2.419,-5.23 -8.803,-19.031 -8.803,-19.031c-1.332,-2.88 -4.128,-4.711 -7.196,-4.711c-3.068,0 -5.864,1.831 -7.196,4.711c0,0 -6.384,13.801 -8.803,19.031c-0.569,1.232 -1.725,2.091 -3.07,2.281c-5.571,0.789 -20.017,2.833 -20.017,2.833c-3.04,0.431 -5.575,2.637 -6.523,5.678c-0.948,3.04 -0.141,6.378 2.075,8.588c0,0 5.043,5.028 8.67,8.645c0.872,0.87 1.295,2.093 1.146,3.316c-0.148,1.222 -0.852,2.309 -1.908,2.944c-3.012,1.812 -6.91,4.158 -9.467,5.696Z" style="fill:url(#_Linear1);"/><defs><linearGradient id="_Linear1" x1="0" y1="0" x2="1" y2="0" gradientUnits="userSpaceOnUse" gradientTransform="matrix(152,0,0,152,20,96)"><stop offset="0" style="stop-color:#2dcbb0;stop-opacity:1"/><stop offset="1" style="stop-color:#fc65b0;stop-opacity:1"/></linearGradient></defs></svg>