<?xml version="1.0" encoding="UTF-8" standalone="no"?><!DOCTYPE svg PUBLIC "-//W3C//DTD SVG 1.1//EN" "http://www.w3.org/Graphics/SVG/1.1/DTD/svg11.dtd"><svg width="100%" height="100%" viewBox="0 0 64 64" version="1.1" xmlns="http://www.w3.org/2000/svg" xmlns:xlink="http://www.w3.org/1999/xlink" xml:space="preserve" xmlns:serif="http://www.serif.com/" style="fill-rule:evenodd;clip-rule:evenodd;stroke-linejoin:round;stroke-miterlimit:2;"><g id="close"><path d="M32,26.343l2.828,-2.828c1.561,-1.561 4.096,-1.561 5.657,0c1.561,1.561 1.561,4.096 0,5.657l-2.828,2.828l2.828,2.828c1.561,1.561 1.561,4.096 0,5.657c-1.561,1.561 -4.096,1.561 -5.657,0l-2.828,-2.828l-2.828,2.828c-1.561,1.561 -4.096,1.561 -5.657,0c-1.561,-1.561 -1.561,-4.096 0,-5.657l2.828,-2.828l-2.828,-2.828c-1.561,-1.561 -1.561,-4.096 0,-5.657c1.561,-1.561 4.096,-1.561 5.657,0l2.828,2.828Z" style="fill:#fc65b0;"/></g></svg>