<?xml version="1.0" encoding="UTF-8" standalone="no"?><!DOCTYPE svg PUBLIC "-//W3C//DTD SVG 1.1//EN" "http://www.w3.org/Graphics/SVG/1.1/DTD/svg11.dtd"><svg width="100%" height="100%" viewBox="0 0 240 240" version="1.1" xmlns="http://www.w3.org/2000/svg" xmlns:xlink="http://www.w3.org/1999/xlink" xml:space="preserve" xmlns:serif="http://www.serif.com/" style="fill-rule:evenodd;clip-rule:evenodd;stroke-linejoin:round;stroke-miterlimit:2;"><path d="M220,120c0,-11.038 -8.962,-20 -20,-20l-160,0c-11.038,0 -20,8.962 -20,20c0,11.038 8.962,20 20,20l160,0c11.038,0 20,-8.962 20,-20Z" style="fill:#d2ccd6;"/><path d="M220,60c0,-11.038 -8.962,-20 -20,-20l-160,0c-11.038,0 -20,8.962 -20,20c0,11.038 8.962,20 20,20l160,0c11.038,0 20,-8.962 20,-20Z" style="fill:#d2ccd6;"/><path d="M220,180c0,-11.038 -8.962,-20 -20,-20l-160,0c-11.038,0 -20,8.962 -20,20c0,11.038 8.962,20 20,20l160,0c11.038,0 20,-8.962 20,-20Z" style="fill:#d2ccd6;"/></svg>