<?xml version="1.0" encoding="UTF-8" standalone="no"?><!DOCTYPE svg PUBLIC "-//W3C//DTD SVG 1.1//EN" "http://www.w3.org/Graphics/SVG/1.1/DTD/svg11.dtd"><svg width="100%" height="100%" viewBox="0 0 240 240" version="1.1" xmlns="http://www.w3.org/2000/svg" xmlns:xlink="http://www.w3.org/1999/xlink" xml:space="preserve" xmlns:serif="http://www.serif.com/" style="fill-rule:evenodd;clip-rule:evenodd;stroke-linejoin:round;stroke-miterlimit:2;"><g id="Arrow"><path d="M120,174.28c-1.778,0.016 -3.561,-0.654 -4.917,-2.01l-85.108,-85.108c-2.681,-2.681 -2.681,-7.035 0,-9.716l9.716,-9.715c2.681,-2.682 7.035,-2.682 9.716,0c0,0 54.604,54.604 67.765,67.764c1.562,1.562 4.094,1.562 5.656,0c13.161,-13.16 67.765,-67.764 67.765,-67.764c2.681,-2.682 7.035,-2.682 9.716,0l9.716,9.715c2.681,2.681 2.681,7.035 0,9.716l-85.108,85.108c-1.356,1.356 -3.139,2.026 -4.917,2.01Z" style="fill:#d2ccd6;"/></g></svg>