<?xml version="1.0" encoding="UTF-8" standalone="no"?><!DOCTYPE svg PUBLIC "-//W3C//DTD SVG 1.1//EN" "http://www.w3.org/Graphics/SVG/1.1/DTD/svg11.dtd"><svg width="100%" height="100%" viewBox="0 0 240 240" version="1.1" xmlns="http://www.w3.org/2000/svg" xmlns:xlink="http://www.w3.org/1999/xlink" xml:space="preserve" xmlns:serif="http://www.serif.com/" style="fill-rule:evenodd;clip-rule:evenodd;stroke-linejoin:round;stroke-miterlimit:2;"><g><path d="M177.208,120c0.016,-1.874 -0.69,-3.753 -2.119,-5.182l-89.698,-89.698c-2.826,-2.826 -7.414,-2.826 -10.24,0l-10.239,10.24c-2.826,2.825 -2.826,7.414 0,10.239c0,0 57.977,57.977 71.572,71.573c0.75,0.75 1.171,1.767 1.171,2.828c0,1.061 -0.421,2.078 -1.171,2.828c-13.595,13.596 -71.572,71.573 -71.572,71.573c-2.826,2.825 -2.826,7.414 0,10.239l10.239,10.24c2.826,2.826 7.414,2.826 10.24,0l89.698,-89.698c1.429,-1.429 2.135,-3.308 2.119,-5.182Z" style="fill:#d2ccd6;"/></g></svg>