<?xml version="1.0" encoding="UTF-8" standalone="no"?><!DOCTYPE svg PUBLIC "-//W3C//DTD SVG 1.1//EN" "http://www.w3.org/Graphics/SVG/1.1/DTD/svg11.dtd"><svg width="100%" height="100%" viewBox="0 0 240 240" version="1.1" xmlns="http://www.w3.org/2000/svg" xmlns:xlink="http://www.w3.org/1999/xlink" xml:space="preserve" xmlns:serif="http://www.serif.com/" style="fill-rule:evenodd;clip-rule:evenodd;stroke-linejoin:round;stroke-miterlimit:2;"><path d="M112.845,34.311c1.355,-2.71 4.125,-4.422 7.155,-4.422c3.03,0 5.8,1.712 7.155,4.422c20.107,40.214 76.523,153.046 89.951,179.9c0.62,1.24 0.553,2.713 -0.176,3.892c-0.728,1.179 -2.016,1.897 -3.402,1.897c-30.178,0 -156.878,0 -187.056,0c-1.386,0 -2.674,-0.718 -3.402,-1.897c-0.729,-1.179 -0.796,-2.652 -0.176,-3.892c13.428,-26.854 69.844,-139.686 89.951,-179.9Z" style="fill:#fc65b0;"/><path d="M140.042,80.021c0,-5.405 -14.523,-9.793 -20.042,-9.793c-5.519,0 -19.856,5.116 -19.856,10.522l9.856,97.207c0,5.406 4.481,-0.705 10,-0.705c5.519,0 10,6.111 10,0.705l10.042,-97.936Z" style="fill:#29223a;"/><circle cx="120" cy="200" r="15" style="fill:#29223a;"/></svg>