<?xml version="1.0" encoding="UTF-8" standalone="no"?><!DOCTYPE svg PUBLIC "-//W3C//DTD SVG 1.1//EN" "http://www.w3.org/Graphics/SVG/1.1/DTD/svg11.dtd"><svg width="100%" height="100%" viewBox="0 0 48 48" version="1.1" xmlns="http://www.w3.org/2000/svg" xmlns:xlink="http://www.w3.org/1999/xlink" xml:space="preserve" xmlns:serif="http://www.serif.com/" style="fill-rule:evenodd;clip-rule:evenodd;stroke-linejoin:round;stroke-miterlimit:2;"><g id="Max"><path d="M36.5,12.75c0,-0.69 -0.56,-1.25 -1.25,-1.25l-22.5,0c-0.69,0 -1.25,0.56 -1.25,1.25l0,22.5c0,0.69 0.56,1.25 1.25,1.25l22.5,0c0.69,0 1.25,-0.56 1.25,-1.25l0,-22.5Z" style="fill:#b7acbf;"/><path d="M35.627,13.535c0,-0.641 -0.521,-1.162 -1.162,-1.162l-20.93,0c-0.641,0 -1.162,0.521 -1.162,1.162l0,20.93c0,0.641 0.521,1.162 1.162,1.162l20.93,0c0.641,0 1.162,-0.521 1.162,-1.162l0,-20.93Z" style="fill:#d2ccd6;"/></g></svg>