<?xml version="1.0" encoding="UTF-8" standalone="no"?><!DOCTYPE svg PUBLIC "-//W3C//DTD SVG 1.1//EN" "http://www.w3.org/Graphics/SVG/1.1/DTD/svg11.dtd"><svg width="100%" height="100%" viewBox="0 0 48 48" version="1.1" xmlns="http://www.w3.org/2000/svg" xmlns:xlink="http://www.w3.org/1999/xlink" xml:space="preserve" xmlns:serif="http://www.serif.com/" style="fill-rule:evenodd;clip-rule:evenodd;stroke-linejoin:round;stroke-miterlimit:2;"><g id="Tileleft"><path d="M23.134,12.082c0,-0.321 -0.26,-0.582 -0.581,-0.582l-10.471,0c-0.321,0 -0.582,0.261 -0.582,0.582l0,23.836c0,0.321 0.261,0.582 0.582,0.582l10.471,0c0.321,0 0.581,-0.261 0.581,-0.582l0,-23.836Z" style="fill:#2dcbb0;"/><path d="M36.5,12.082c0,-0.321 -0.261,-0.582 -0.582,-0.582l-10.471,0c-0.321,0 -0.581,0.261 -0.581,0.582l0,10.471c0,0.321 0.26,0.581 0.581,0.581l10.471,0c0.321,0 0.582,-0.26 0.582,-0.581l0,-10.471Z" style="fill:#d2ccd6;"/><path d="M36.5,25.35c0,-0.321 -0.261,-0.581 -0.582,-0.581l-10.471,0c-0.321,0 -0.581,0.26 -0.581,0.581l0,10.568c0,0.321 0.26,0.582 0.581,0.582l10.471,0c0.321,0 0.582,-0.261 0.582,-0.582l0,-10.568Z" style="fill:#d2ccd6;"/></g></svg>